<?xml version="1.0" encoding="UTF-8"?>
<svg version="1.1" xmlns="http://www.w3.org/2000/svg" width="3500" height="1600">
<path d="M0 0 C1155 0 2310 0 3500 0 C3500 528 3500 1056 3500 1600 C2345 1600 1190 1600 0 1600 C0 1072 0 544 0 0 Z " fill="#FEFEFE" transform="translate(0,0)"/>
<path d="M0 0 C115.5 0 231 0 350 0 C353.37130621 7.86638116 353.37130621 7.86638116 354.359375 11.46875 C354.58431641 12.27497803 354.80925781 13.08120605 355.04101562 13.91186523 C355.27498047 14.76594971 355.50894531 15.62003418 355.75 16.5 C357.89535414 24.18050359 360.14598385 31.81843395 362.5 39.4375 C364.8582653 47.08858806 367.05844313 54.76513463 369.125 62.5 C371.07955323 69.81038726 373.25944104 76.95215533 375.71875 84.109375 C378.98836812 93.82627135 381.57898241 103.78928192 384.28125 113.67578125 C386.57349698 122.05147461 389.03148677 130.34019493 391.69702148 138.60498047 C393.6650292 144.77505259 395.39311789 150.99317087 397.0625 157.25 C398.70502786 163.40511248 400.42368427 169.47669431 402.5 175.5 C404.57631823 181.52331294 406.29487273 187.59491052 407.9375 193.75 C409.80437946 200.7430193 411.77921512 207.67343118 414 214.5625 C416.05767207 220.94872238 417.99296852 227.35431328 419.8125 233.8125 C422.3045726 242.65276428 424.91436186 251.45545182 427.5625 260.25 C427.95647785 261.55932128 428.35043957 262.86864741 428.74438477 264.17797852 C429.49570223 266.67466179 430.24708292 269.17132604 430.99853516 271.66796875 C433.91650989 281.37653024 436.76096601 291.09709318 439.4375 300.875 C441.34580104 307.84431668 443.47685988 314.72112069 445.69458008 321.59741211 C447.68289797 327.83231351 449.43313562 334.11631322 451.125 340.4375 C452.89775284 347.06065434 454.77507456 353.58740836 457.015625 360.0703125 C460.60071939 370.74023629 463.47572257 381.66192072 466.5 392.5 C469.89318022 404.65889579 473.31940275 416.79557688 477.17675781 428.81640625 C479.57577669 436.29370772 481.79442506 443.78562883 483.8125 451.375 C486.45217276 461.28193087 489.46551795 471.0512305 492.54003906 480.83081055 C495.17544552 489.24922503 497.66803009 497.69758506 500.0625 506.1875 C503.27353297 517.57032826 506.69471082 528.87639652 510.19921875 540.171875 C512.29859793 546.94294362 514.2973928 553.74082659 516.28125 560.54638672 C517.84024401 565.86836014 519.42268543 571.18343429 521 576.5 C523.63130484 585.37462363 526.25768786 594.25060498 528.86328125 603.1328125 C529.6264001 605.73331193 530.39509748 608.33207038 531.16796875 610.9296875 C533.3601437 618.31442042 535.48352244 625.71395854 537.5402832 633.13769531 C540.59826036 644.17137616 543.84455946 655.11449293 547.36083984 666.01025391 C550.30064936 675.16206735 553.02003258 684.38411769 555.77587891 693.5925293 C557.81650448 700.40571199 559.89271404 707.20710174 562 714 C564.41032184 707.1194967 566.26793943 700.21898701 567.9375 693.125 C568.32663574 691.49038818 568.32663574 691.49038818 568.72363281 689.82275391 C570.50572025 682.27372554 572.17852796 674.70658988 573.70678711 667.10205078 C574.35311805 663.91222392 575.05362885 660.81588152 575.96484375 657.6875 C577.36017359 652.71696653 578.32443013 647.69005718 579.3125 642.625 C579.70424876 640.63798567 580.09618717 638.65100872 580.48828125 636.6640625 C580.81073067 635.02506989 580.81073067 635.02506989 581.13969421 633.35296631 C584.5028001 616.30481207 587.94772901 599.27268671 591.38900375 582.24017715 C592.08046821 578.81770845 592.77160831 575.39517437 593.462677 571.97262573 C595.42374844 562.26063589 597.38540519 552.54876428 599.34716797 542.83691406 C600.55490572 536.85776198 601.76240842 530.87856249 602.96967316 524.89931488 C603.44160886 522.56194941 603.91358837 520.22459279 604.38561249 517.88724518 C606.66122836 506.61776409 608.93457772 495.34787101 611.18457031 484.07324219 C611.34921595 483.24836996 611.51386158 482.42349773 611.68349648 481.57362938 C612.4246254 477.85891833 613.16440539 474.14394649 613.90182495 470.42849731 C614.15352448 469.16415863 614.405224 467.89981995 614.66455078 466.59716797 C614.87653107 465.52884735 615.08851135 464.46052673 615.30691528 463.35983276 C615.83671912 460.79152871 616.38991092 458.23347222 616.9634552 455.67489624 C618.00975606 450.99652028 618.97369847 446.30395208 619.92016602 441.60449219 C620.10107285 440.70985764 620.28197968 439.81522308 620.46836853 438.89347839 C621.06440024 435.94478209 621.65917525 432.9958339 622.25390625 430.046875 C622.67782795 427.94792406 623.10181511 425.84898635 623.52586365 423.75006104 C624.41825539 419.33201819 625.31006216 414.91385782 626.20141602 410.49560547 C627.31420383 404.97982784 628.42807478 399.46426975 629.54238319 393.94879913 C630.41624328 389.62305848 631.28961882 385.29722009 632.16288376 380.97135925 C632.59834872 378.81444311 633.0339387 376.65755221 633.46965408 374.50068665 C635.86313332 362.65090483 638.24259791 350.79858292 640.58935547 338.93945312 C641.00425436 336.84734042 641.41920593 334.75523817 641.83421326 332.66314697 C642.61214548 328.74124637 643.3850785 324.81840589 644.15516663 320.8949585 C644.50421079 319.13338442 644.85343827 317.37184665 645.20288086 315.61035156 C645.35625601 314.82143776 645.50963116 314.03252396 645.66765404 313.21970367 C646.292513 310.08819776 646.95471049 307.13116058 647.99873352 304.10762024 C649.41814273 299.7022148 650.07383357 295.22921373 650.81738281 290.66772461 C652.92625688 278.16186396 655.39288091 265.74302466 657.921875 253.31640625 C658.39052541 251.00135507 658.85888173 248.68624434 659.32696533 246.37107849 C660.55081823 240.32149628 661.77830347 234.27265722 663.00671387 228.22399902 C664.47234116 221.00417794 665.93383486 213.78351938 667.39591217 206.56297874 C667.75276218 204.80067893 667.75276218 204.80067893 668.11682129 203.0027771 C668.35338943 201.83446728 668.58995758 200.66615746 668.83369446 199.46244431 C669.54280482 195.9615011 670.25248519 192.46067383 670.96228027 188.95986938 C674.1888444 173.04082482 677.38839223 157.11654655 680.5524292 141.18495178 C681.82505959 134.78702629 683.10389088 128.39464515 684.54812622 122.0327301 C685.46201993 117.92162798 686.26293807 113.78707353 687.08203125 109.65625 C687.52552187 107.42968122 687.96904677 105.20311927 688.41259766 102.9765625 C688.66140686 101.72584961 688.91021606 100.47513672 689.16656494 99.18652344 C691.75507055 86.17864955 694.35764953 73.17356926 696.95609856 60.16767883 C697.92477149 55.319081 698.8930638 50.4704077 699.8605957 45.62158203 C700.8121632 40.85285247 701.76468004 36.08431342 702.71784401 31.31590271 C703.07658438 29.52036781 703.43498899 27.7247658 703.79303551 25.92909241 C704.29170191 23.42845807 704.79158843 20.92807042 705.29174805 18.42773438 C705.43566483 17.70455521 705.5795816 16.98137604 705.7278595 16.23628235 C706.1447497 14.1559672 706.56942769 12.0775258 707 10 C707.2552542 8.76809685 707.2552542 8.76809685 707.51566505 7.51130676 C707.7773224 6.28591438 707.7773224 6.28591438 708.04426575 5.0357666 C708.28217945 3.9142709 708.28217945 3.9142709 708.52489948 2.77011871 C709 1 709 1 710 0 C712.4665484 -0.09995901 714.90515205 -0.13441376 717.37225342 -0.12698364 C718.54484974 -0.12932363 718.54484974 -0.12932363 719.74113488 -0.13171089 C722.38310603 -0.13572576 725.02502053 -0.13252881 727.66699219 -0.12939453 C729.55469293 -0.13074884 731.44239341 -0.13252894 733.33009338 -0.13470459 C738.48785637 -0.13928909 743.64559948 -0.13748163 748.80336285 -0.1343255 C754.23693075 -0.1317909 759.67049697 -0.13414401 765.10406494 -0.13571167 C774.2778758 -0.13753696 783.45167864 -0.13512479 792.62548828 -0.13037109 C803.1111558 -0.12499901 813.59680366 -0.12663725 824.08247066 -0.1321975 C833.14469209 -0.1368049 842.20690775 -0.13734063 851.26912999 -0.13475883 C856.65233125 -0.13322791 862.03552345 -0.13291009 867.41872406 -0.13629532 C888.41463723 -0.1475289 909.40741466 -0.08044037 930.39995241 0.32734704 C932.29295028 0.36379949 934.18599609 0.39786543 936.07908583 0.42918563 C948.48519713 0.64169273 960.68158769 1.50607813 973 3 C971.91171679 11.82168737 971.91171679 11.82168737 971.24731445 15.05981445 C971.10635849 15.75391922 970.96540253 16.44802399 970.82017517 17.16316223 C970.66940018 17.88920151 970.51862518 18.61524078 970.36328125 19.36328125 C970.20344254 20.14414597 970.04360382 20.92501068 969.87892151 21.72953796 C969.36011843 24.25789195 968.83650234 26.78521888 968.3125 29.3125 C967.94869069 31.07876785 967.58492153 32.84504397 967.22119141 34.61132812 C964.97399066 45.48776475 962.61701923 56.33310355 960.15625 67.16333008 C957.90178389 77.19370234 955.96670469 87.27964164 954.09130859 97.38671875 C952.89621334 103.74492701 951.51148456 109.94103659 949.7434082 116.16210938 C948.24717867 121.87382435 947.26409966 127.69753305 946.1875 133.5 C943.23320299 149.15935752 939.92475208 164.73491061 936.22802734 180.23730469 C934.75278833 186.46198088 933.51579781 192.65939274 932.50976562 198.97607422 C931.59966753 204.37476912 930.41462737 209.71398216 929.25 215.0625 C928.85856812 216.87790283 928.85856812 216.87790283 928.45922852 218.72998047 C926.90385741 225.92001781 925.30743873 233.10011267 923.69091797 240.27661133 C921.51404709 249.95120112 919.45181054 259.62793903 917.625 269.375 C915.14972218 282.58194362 912.2931526 295.69788319 909.42991638 308.82470703 C909.26097366 309.59927246 909.09203094 310.37383789 908.91796875 311.171875 C908.75091934 311.93741699 908.58386993 312.70295898 908.41175842 313.49169922 C907.00616307 319.94476071 905.64771593 326.40700596 904.3125 332.875 C901.16330463 348.0995869 897.86271643 363.28687032 894.375 378.4375 C892.97471287 384.52473376 891.6634437 390.60145476 890.5625 396.75 C889.29464852 403.78801645 887.70011647 410.72687513 886.0625 417.6875 C884.17728257 425.70284493 882.41751838 433.7123164 880.9375 441.8125 C879.68558016 448.66429365 878.2285765 455.42454895 876.5625 462.1875 C874.35435988 471.16394081 872.57639352 480.1891632 870.87524414 489.27392578 C869.55997688 496.24109315 868.1091708 503.15752296 866.5 510.0625 C864.6960669 517.80884239 863.04246605 525.57229087 861.5 533.375 C861.29375 534.41833496 861.0875 535.46166992 860.875 536.53662109 C860.565625 538.10210693 860.565625 538.10210693 860.25 539.69921875 C857.33529798 554.44351215 854.23106602 569.14075675 850.875 583.79077148 C847.21013883 599.79161264 843.74638986 615.80977458 840.78710938 631.95800781 C839.67799953 637.90396449 838.34640325 643.70219458 836.65820312 649.51171875 C835.97836758 652.08177953 835.52382104 654.62275996 835.125 657.25 C834.22147924 663.03401402 833.01149753 668.72351505 831.75 674.4375 C829.7802236 683.3606827 827.8955208 692.29773209 826.0625 701.25 C823.85430782 712.01440231 821.5207745 722.74497185 819.10961914 733.46557617 C817.47459079 740.76755578 815.96604948 748.08382715 814.54077148 755.42919922 C813.16925327 762.38773062 811.56123293 769.28403531 809.9375 776.1875 C808.09968349 784.00908899 806.41286324 791.80094478 805.11303711 799.72900391 C803.97250172 806.52908324 802.39294023 813.21795076 800.83349609 819.93212891 C799.62858195 825.14919893 798.51486199 830.35601501 797.5625 835.625 C796.03379832 844.06721208 794.21456406 852.44051439 792.40039062 860.82543945 C790.56744663 869.3106481 788.8002915 877.80735296 787.0625 886.3125 C784.99962989 896.38435975 782.79522267 906.41615832 780.5 916.4375 C777.8742334 927.91355161 775.46863414 939.41740824 773.19262695 950.9675293 C770.8967476 962.60155115 768.41901196 974.19170251 765.90966797 985.78125 C764.82770582 990.78969991 763.76007068 995.80119923 762.69140625 1000.8125 C762.0801232 1003.67624499 761.468735 1006.5399675 760.85733032 1009.40368652 C760.45586522 1011.28519236 760.05479625 1013.16678276 759.65414429 1015.04846191 C759.08843991 1017.70446279 758.52096095 1020.36007914 757.953125 1023.015625 C757.78563248 1023.80412842 757.61813995 1024.59263184 757.4455719 1025.4050293 C757.28467575 1026.15598877 757.1237796 1026.90694824 756.95800781 1027.68066406 C756.82066223 1028.32457092 756.68331665 1028.96847778 756.54180908 1029.63189697 C755.74817914 1033.10064182 754.86303293 1036.54786827 754 1040 C639.16 1040 524.32 1040 406 1040 C399.50625 1020.51875 399.50625 1020.51875 397.05859375 1011.75390625 C394.05308425 1001.09599247 390.89241981 990.47974997 387.3125 980 C385.87088826 975.75271986 384.58966062 971.55293264 383.5625 967.1875 C382.36000862 962.11937248 380.80000293 957.23882563 379.125 952.3125 C376.16815889 943.60634653 373.54056143 934.83519268 371 926 C367.04021083 912.27595021 362.98687922 898.59762807 358.63476562 884.99267578 C357.04701557 880.00836196 355.52751494 875.0030106 354 870 C353.47010138 868.27602651 352.94014858 866.55206968 352.41015625 864.828125 C349.47123504 855.24372659 346.5917762 845.64991117 343.875 836 C341.85582565 828.82977595 339.62602668 821.786947 337.21484375 814.73828125 C335.59890208 809.76575335 334.24085471 804.73633138 332.87475586 799.69067383 C331.56426306 794.89884846 330.10715033 790.20091471 328.5 785.5 C326.37589876 779.28700387 324.59046338 773.02789912 322.875 766.69140625 C321.56435408 761.89935709 320.10723387 757.20115907 318.5 752.5 C316.70602562 747.24582117 315.13027849 741.98525652 313.6875 736.625 C311.67818886 729.17489181 309.38281165 721.83866173 307 714.5 C304.46785697 706.69319207 302.06965061 698.88509187 299.93359375 690.96142578 C296.1544466 677.06805453 291.68498038 663.36094493 287.375 649.625 C283.13819379 636.09272598 279.12256163 622.49963262 275.25024414 608.85888672 C272.83769242 600.38158978 270.3055961 591.94227577 267.75439453 583.50585938 C266.98451467 580.94856264 266.2235005 578.38877215 265.46484375 575.828125 C263.23130441 568.3030127 260.96975725 560.80559236 258.4375 553.375 C256.34250842 547.20381074 254.57825572 540.98472949 252.87695312 534.69750977 C251.54917795 529.83957998 250.06596922 525.07838699 248.4375 520.3125 C246.3397615 514.17053211 244.59679566 508.01400072 242.9921875 501.73046875 C240.65779456 492.95351892 237.86709736 484.30129785 235.1875 475.625 C232.76198052 467.75869003 230.3535628 459.88814466 228 452 C224.06888028 438.83269637 219.99945153 425.70769369 215.94287109 412.57861328 C208.94821867 389.9389639 208.94821867 389.9389639 205.79663086 379.06738281 C204.24440176 373.74507975 202.56674482 368.46688375 200.875 363.1875 C198.96240087 357.20533811 197.23541638 351.23867143 195.78515625 345.125 C194.75136456 341.01040621 193.57102624 336.94497074 192.375 332.875 C192.15642334 332.12718262 191.93784668 331.37936523 191.71264648 330.60888672 C190.58091992 326.71939705 190.58091992 326.71939705 189 323 C185.89380419 333.35977039 183.84793621 343.81210015 181.92919922 354.44799805 C179.17103591 369.70205072 176.041849 384.86176301 172.37646484 399.92358398 C171.21231275 404.81667917 170.3405688 409.71962053 169.5625 414.6875 C168.53501085 421.24136745 167.21205678 427.66920472 165.6875 434.125 C163.611081 442.957785 161.87634713 451.8239631 160.25 460.75 C157.36713143 476.5547228 154.01233865 492.24736784 150.599823 507.94514465 C147.59782064 521.76485109 144.86680661 535.62812233 142.24755859 549.52490234 C137.02301544 577.23913219 131.35100674 604.84004551 125.4140625 632.41015625 C124.00616014 638.9568054 122.62077905 645.50798205 121.25 652.0625 C120.95198486 653.48006592 120.95198486 653.48006592 120.64794922 654.92626953 C119.731441 659.32346704 118.85680633 663.72335222 118.06347656 668.14453125 C113.73448247 692.06938693 108.84658211 715.89288602 104.06756592 739.73083496 C103.1237713 744.43955715 102.1810676 749.14849772 101.23828125 753.85742188 C99.79604843 761.06031667 98.3533385 768.26311569 96.91015625 775.46582031 C92.41049892 797.92165601 92.41049892 797.92165601 87.9375 820.3828125 C82.03552951 850.08981074 82.03552951 850.08981074 79.3125 862.3125 C77.27954812 871.44395439 75.54946473 880.61722521 73.87207031 889.82006836 C70.840278 906.43225645 67.4294293 922.96606992 64 939.5 C59.93924553 959.07951211 55.99724843 978.67329959 52.40625 998.3449707 C49.83378764 1012.27577313 46.89631335 1026.13367213 44 1040 C-10.27830781 1040.79061659 -64.55253879 1041.11122992 -118.83597785 1041.12283063 C-124.44079471 1041.12411319 -130.04560622 1041.12786058 -135.65042114 1041.13256836 C-143.31498766 1041.13875886 -150.97953656 1041.13863161 -158.644104 1041.13431931 C-161.48251833 1041.1328635 -164.32091888 1041.13351506 -167.15933228 1041.13615799 C-179.77787635 1041.1463581 -192.39203413 1041.13846851 -205.00170898 1040.61669922 C-205.83819757 1040.58635653 -206.67468615 1040.55601383 -207.53652287 1040.52475166 C-212.01955005 1040.30369236 -215.77466635 1039.66658283 -220 1038 C-218.66604097 1028.70444706 -216.96832402 1019.52524191 -215.05859375 1010.33203125 C-214.76889231 1008.92669986 -214.47943456 1007.52131822 -214.19020081 1006.1158905 C-213.58283589 1003.16806705 -212.9733143 1000.22070112 -212.36206055 997.27368164 C-211.60832846 993.63947127 -210.8586733 990.00443736 -210.11056232 986.36906624 C-205.75090641 965.19065617 -201.24663575 944.04425106 -196.69950676 922.90538883 C-194.88469641 914.46802668 -193.07840491 906.02885163 -191.2732811 897.58941269 C-189.66245445 890.05937301 -188.04981381 882.52972136 -186.4375 875 C-186.24858814 874.11769337 -186.05967628 873.23538673 -185.86503983 872.32634354 C-181.46003639 851.75386237 -177.04696811 831.18319881 -172.59375 810.62109375 C-172.41796669 809.8093998 -172.24218338 808.99770584 -172.0610733 808.1614151 C-170.51784859 801.0361329 -168.97376557 793.9110368 -167.42907715 786.78607178 C-163.08215278 766.73266159 -158.77889333 746.67134542 -154.64819336 726.57202148 C-153.1369654 719.24180014 -151.5242505 711.962233 -149.66381836 704.7109375 C-148.56843156 700.23753735 -147.7635643 695.71692691 -146.9375 691.1875 C-144.44876506 677.89083556 -141.63706287 664.6660952 -138.8125 651.4375 C-138.59044891 650.39677338 -138.36839783 649.35604675 -138.13961792 648.28378296 C-136.27670627 639.55858941 -134.41277292 630.83426843 -132.47050476 622.12635803 C-131.74071604 618.82821477 -131.04206876 615.52368102 -130.34375 612.21875 C-130.12205139 611.17116516 -130.12205139 611.17116516 -129.89587402 610.10241699 C-129.43015138 607.90170228 -128.96499936 605.70086765 -128.5 603.5 C-127.88594383 600.5936382 -127.27127507 597.68740691 -126.65625 594.78125 C-126.38619141 593.50314453 -126.11613281 592.22503906 -125.83789062 590.90820312 C-125.26006142 588.21301374 -124.67249153 585.52186589 -124.07061768 582.8321228 C-123.0294722 578.15324471 -122.02580125 573.46701129 -121.03222656 568.77783203 C-120.753638 567.46566208 -120.753638 567.46566208 -120.46942139 566.12698364 C-120.0687781 564.23978426 -119.66831407 562.35254681 -119.268013 560.46527481 C-118.62823044 557.44938541 -117.98776726 554.43364128 -117.34710693 551.41793823 C-115.52627736 542.84671419 -113.70607295 534.27535786 -111.88769531 525.70361328 C-102.99760243 483.80003609 -102.99760243 483.80003609 -98.92655945 465.65034485 C-96.89679345 456.59103412 -94.98227812 447.50990495 -93.10177612 438.4185791 C-90.29288846 424.84448758 -87.43232306 411.28427989 -84.4375 397.75 C-81.39361898 383.98977038 -78.54584999 370.19282753 -75.75170898 356.37988281 C-75.59075241 355.58710434 -75.42979584 354.79432587 -75.26396179 353.9775238 C-74.96806696 352.51939282 -74.6735529 351.06098038 -74.38093567 349.60218811 C-73.27910367 344.1755859 -72.0316968 338.78684329 -70.77856445 333.39338684 C-69.52844204 327.94470634 -68.36050158 322.47908931 -67.1953125 317.01171875 C-66.93855743 315.81028732 -66.68180237 314.6088559 -66.41726685 313.37101746 C-63.27073124 298.62171403 -60.18223702 283.86008519 -57.09912109 269.09741211 C-52.2296839 245.79192364 -52.2296839 245.79192364 -50.0078125 236.69921875 C-48.1245247 228.97470992 -46.65110988 221.17598467 -45.1640625 213.3671875 C-42.28196167 198.24093904 -39.096127 183.18968206 -35.81499481 168.14480591 C-34.58911265 162.51736674 -33.37198863 156.88802101 -32.15419388 151.25882721 C-31.84332793 149.82186783 -31.53235145 148.38493236 -31.22126389 146.94802094 C-28.96906785 136.54244452 -26.7497801 126.13034997 -24.5625 115.7109375 C-24.42604694 115.06111027 -24.28959389 114.41128304 -24.14900589 113.74176407 C-22.73019143 106.98270192 -21.3169969 100.22248115 -19.90771484 93.46142578 C-17.67881177 82.79350564 -15.39912365 72.15162403 -12.82641602 61.56079102 C-11.66704987 56.56541283 -10.75600819 51.53403657 -9.84375 46.48828125 C-8.83236034 41.01701365 -7.69757609 35.5717258 -6.5625 30.125 C-6.36922119 29.19357178 -6.17594238 28.26214355 -5.97680664 27.30249023 C-4.06811296 18.18144403 -2.02198599 9.09893696 0 0 Z " fill="#0065B7" transform="translate(467,278)"/>
<path d="M0 0 C0.85323158 0.00037972 1.70646316 0.00075944 2.58555025 0.00115067 C3.56637545 -0.00084038 4.54720066 -0.00283143 5.55774784 -0.00488281 C7.19341329 -0.00051355 7.19341329 -0.00051355 8.86212248 0.00394398 C10.01045511 0.00308955 11.15878775 0.00223513 12.34191835 0.00135481 C15.54351613 -0.00001332 18.74507397 0.00313398 21.94666702 0.00813287 C25.39385276 0.0124342 28.84103649 0.01099118 32.28822416 0.0102306 C38.26542253 0.00970516 44.24261002 0.01285402 50.21980566 0.01846844 C58.86192454 0.02658077 67.50403814 0.02919838 76.14616042 0.03045643 C90.16598096 0.03264737 104.18579569 0.0393086 118.20561308 0.04875904 C131.82800861 0.05793207 145.45040258 0.06501344 159.07280058 0.06926686 C159.91188361 0.06952958 160.75096664 0.0697923 161.61547644 0.07006299 C165.82472982 0.07136798 170.0339832 0.0726317 174.2432366 0.07387489 C209.18683563 0.08424881 244.13042792 0.10186827 279.07402128 0.1241985 C278.76199176 1.86961254 278.44846799 3.61475949 278.13432401 5.3597942 C277.95989271 6.33165165 277.7854614 7.3035091 277.6057443 8.30481678 C276.90738802 12.0077464 276.04055859 15.65476227 275.13652128 19.3116985 C273.67045721 25.39427599 272.39870665 31.48153781 271.28251737 37.6398235 C269.62465317 46.71353375 267.67479693 55.7278568 265.77861112 64.75408131 C264.7873399 69.49542155 263.8124366 74.24008966 262.83622831 78.98455006 C260.37874711 90.92088731 257.86189644 102.84183469 255.24980253 114.74529225 C254.85761866 116.53820485 254.46570759 118.33117713 254.07402128 120.1241985 C253.84553495 121.1660027 253.61704862 122.20780689 253.38163847 123.28118092 C251.5068918 131.91452517 249.80303478 140.57375435 248.14207548 149.24999195 C245.85377114 161.18958787 243.48816527 173.09936206 240.84355253 184.96599537 C239.32966103 191.80819128 237.99301544 198.67481456 236.69902128 205.5616985 C234.85601254 215.35309594 232.79964588 225.08687816 230.63652128 234.8116985 C228.24808548 245.5546446 226.00973555 256.31350347 223.94902128 267.1241985 C222.24219328 276.07613256 220.51057973 285.01813371 218.63652128 293.9366985 C218.434783 294.89769459 218.23304472 295.85869068 218.02519315 296.84880787 C217.60088012 298.86726896 217.17622849 300.8856589 216.75126737 302.90398365 C212.102932 325.00619837 207.67479558 347.14759323 203.33183378 369.3116985 C202.81969011 371.92305503 202.30732221 374.53436752 201.79496855 377.14568287 C200.55391214 383.47170968 199.31364525 389.79789085 198.07402128 396.1241985 C235.97709296 396.01924539 273.88014748 395.9093912 311.78318607 395.79308156 C316.27108155 395.7793141 320.75897716 395.76558669 325.24687284 395.75188404 C326.58690531 395.74779159 326.58690531 395.74779159 327.95400913 395.74361645 C342.36649149 395.69969596 356.77898122 395.65900967 371.19147639 395.61954588 C386.01059573 395.57889567 400.82970157 395.53470664 415.64880091 395.48731995 C424.77250186 395.4582542 433.89620214 395.43185807 443.01992084 395.40901952 C449.29998969 395.39303315 455.58004214 395.37356981 461.86009263 395.35153008 C465.46828722 395.33896496 469.07646988 395.32778046 472.68467993 395.32077938 C490.16940649 395.28569848 507.60729746 394.93753535 525.07402128 394.1241985 C525.1722418 393.21438221 525.1722418 393.21438221 525.27244657 392.2861858 C525.3600424 391.48442921 525.44763822 390.68267262 525.53788847 389.85662037 C525.62399381 389.06445118 525.71009916 388.27228199 525.79881376 387.45610768 C527.55497239 372.57569146 531.08791655 357.79279085 534.07402128 343.1241985 C534.2188394 342.41213246 534.36365751 341.70006642 534.51286405 340.96642262 C539.57194103 316.09318855 544.69519104 291.23312395 549.82402128 266.3741985 C549.96193083 265.70567608 550.09984037 265.03715367 550.24192899 264.348373 C553.59179275 248.10994435 556.95455828 231.87429654 560.34025663 215.6433025 C562.72480865 204.20709255 565.1045718 192.76988429 567.48345655 181.33249432 C568.36696295 177.08481202 569.25083286 172.83720607 570.13554472 168.58977467 C573.55268538 152.18338228 576.96597615 135.77795865 580.21778959 119.3378368 C581.72851304 111.74519561 583.33065445 104.17329874 584.95072645 96.60338742 C587.73385532 83.59806548 590.41376194 70.57565192 593.00370878 57.5304485 C593.16634466 56.71190388 593.32898054 55.89335926 593.49654478 55.05001026 C594.99390593 47.51106037 596.48584127 39.97104103 597.9744119 32.43035084 C598.80271912 28.23550985 599.63469791 24.04141085 600.46898359 19.84775501 C600.78223263 18.26911812 601.09402294 16.69019103 601.40430921 15.11096913 C601.83097244 12.9395496 602.26225029 10.76909581 602.69462675 8.59880787 C602.93776609 7.3681963 603.18090544 6.13758473 603.43141264 4.86968189 C604.07402128 2.1241985 604.07402128 2.1241985 605.07402128 1.1241985 C609.40649554 0.73967447 613.76590945 0.69580576 618.11308378 0.57219654 C618.80943559 0.55128181 619.50578741 0.53036708 620.22324079 0.50881857 C640.83473508 -0.09655536 661.45534099 -0.04060579 682.07378477 -0.04305857 C685.49140669 -0.04377919 688.90902483 -0.04593197 692.32664579 -0.04855579 C704.3199141 -0.05774333 716.31317145 -0.06189853 728.30644315 -0.06110424 C739.37640406 -0.06050334 750.44631626 -0.07107487 761.51626486 -0.0868479 C771.12073006 -0.10003128 780.72517953 -0.10528375 790.32965368 -0.10464883 C796.0221908 -0.10439725 801.71468434 -0.10705664 807.4072122 -0.11782688 C848.10440701 -0.1893402 848.10440701 -0.1893402 867.84745878 1.01360279 C869.15518247 1.09117975 870.46290617 1.1687567 871.81025785 1.24868447 C881.29212697 1.91410378 881.29212697 1.91410378 885.07402128 4.1241985 C884.58837113 11.78124553 883.10257585 19.06909569 881.34953398 26.52828175 C880.54832192 29.93881946 879.76779762 33.35411552 878.98417753 36.76872975 C878.82404173 37.46403294 878.66390592 38.15933613 878.49891752 38.87570912 C876.87042135 45.9645086 875.33793334 53.07252683 873.82402128 60.1866985 C873.59045927 61.28352955 873.35689726 62.38036061 873.11625761 63.51042897 C872.66468701 65.6341185 872.21390877 67.75797668 871.76396269 69.882011 C871.28054964 72.15367596 870.79288359 74.42443811 870.30204862 76.694511 C868.84221822 83.44816183 867.45546277 90.20500496 866.19902128 96.9991985 C863.45628907 111.57870246 860.56270536 126.14050365 857.07402128 140.5616985 C853.74818374 154.32513134 851.1409247 168.26451045 848.57402128 182.1866985 C847.18358833 189.70128555 845.62160128 197.17624128 844.04838651 204.65447193 C842.52598778 211.90549612 841.06898905 219.16744191 839.63652128 226.4366985 C837.63845784 236.5497038 835.43010503 246.60728654 833.16630644 256.66374928 C831.57656321 263.76033828 830.13586469 270.85407737 828.84355253 278.01091725 C827.30931957 286.37888825 825.47784465 294.69264749 823.72685331 303.0172649 C822.6909018 307.94752627 821.66363223 312.87958912 820.63652128 317.8116985 C820.33125517 319.27639576 820.33125517 319.27639576 820.01982206 320.77068287 C818.10615624 329.95746649 816.20570041 339.14697235 814.30693144 348.33684498 C813.12955351 354.03279826 811.94951653 359.72813989 810.75761503 365.4210735 C810.34222916 367.40544404 809.92686417 369.38981896 809.51152128 371.3741985 C809.30913847 372.34083424 809.10675565 373.30746998 808.89824003 374.30339772 C807.40950131 381.44290192 805.98651676 388.59427885 804.57402128 395.7491985 C802.9908315 403.7597777 801.29002157 411.73144235 799.44902128 419.6866985 C797.75454774 427.01025963 796.23000343 434.32506949 794.88652128 441.72185475 C793.84118869 447.45076733 792.70726915 453.16214162 791.57402128 458.8741985 C791.372283 459.90391773 791.17054472 460.93363697 790.96269315 461.99455982 C789.93583716 467.15319048 788.81302795 472.2618091 787.51152128 477.3585735 C786.30359522 482.092964 785.34667106 486.80230237 784.57402128 491.6241985 C783.76548903 496.43180248 782.88331084 501.15661639 781.63652128 505.8741985 C780.26237834 511.10869145 779.24180336 516.36807288 778.26152128 521.6866985 C776.73548398 529.9400169 774.99165342 538.12632444 773.13652128 546.3116985 C771.14429847 555.11948581 769.29762878 563.93554106 767.63652128 572.8116985 C765.6485671 583.42988525 763.39053751 593.97180864 761.04991239 604.5162273 C759.06827972 613.45219921 757.21184257 622.39527188 755.55986112 631.39812428 C754.25472678 638.40891455 752.71033585 645.35681952 751.13652128 652.3116985 C748.35661946 664.60930448 745.92718287 676.95572499 743.5969705 689.3453899 C742.89290183 693.08661755 742.17817386 696.82526379 741.44902128 700.5616985 C741.15124784 702.1066399 741.15124784 702.1066399 740.84745878 703.68279225 C740.22087997 706.47075151 739.49337478 709.16277672 738.70292753 711.9054485 C736.49475985 719.89106717 735.12193677 728.04286482 733.63652128 736.1866985 C730.69434765 752.26210087 727.3132117 768.19478194 723.47636503 784.08122975 C721.65716961 791.70380891 720.20159511 799.39288599 718.78080839 807.09807545 C716.83213192 817.60801358 714.56852591 828.03051368 712.21782011 838.45720631 C710.60983367 845.62037995 709.15077233 852.77899532 707.84355253 860.00310475 C705.42724421 873.17545586 702.52941755 886.2659971 699.51152128 899.3116985 C697.68606526 907.21402009 696.07189666 915.13417451 694.58891386 923.10735279 C692.79501963 932.72201988 690.7714953 942.28597116 688.75810331 951.85662037 C687.79131881 956.47455175 686.84111976 961.09585583 685.88969511 965.71697193 C683.64563906 976.61355527 681.35900373 987.49941991 679.01152128 998.3741985 C676.22968696 1011.26424613 673.61744436 1024.18517372 671.07402128 1037.1241985 C668.39196028 1038.01821883 666.61046871 1038.29769491 663.83789152 1038.41834217 C662.96212524 1038.45769949 662.08635896 1038.49705681 661.18405432 1038.53760678 C660.21357593 1038.57560831 659.24309755 1038.61360985 658.24321073 1038.65276295 C657.2013203 1038.69532656 656.15942987 1038.73789017 655.085967 1038.78174359 C651.51584863 1038.92169019 647.94548309 1039.05021124 644.37480253 1039.17497975 C643.10946495 1039.21947066 641.84412737 1039.26396157 640.54044622 1039.30980068 C601.30209428 1040.63577734 562.03711779 1040.38968236 522.78191191 1040.32479447 C514.24590144 1040.31135885 505.70991652 1040.30909821 497.17389691 1040.3097446 C486.78979968 1040.31042388 476.4057174 1040.30348609 466.02162474 1040.29429799 C463.09053911 1040.29219313 460.15945597 1040.29146063 457.22836965 1040.29105908 C422.43678645 1040.28156078 422.43678645 1040.28156078 409.01274198 1039.73870045 C408.18668298 1039.70849151 407.36062397 1039.67828257 406.50953287 1039.64715821 C400.87194998 1039.3636037 395.18526628 1038.679821 390.07402128 1036.1241985 C391.51895727 1026.80188903 393.39661307 1017.59210756 395.38652128 1008.3741985 C395.96703272 1005.67130553 396.54607888 1002.96809977 397.12480253 1000.2648235 C397.27579405 999.56002857 397.42678556 998.85523365 397.58235258 998.12908131 C401.53267452 979.65241638 405.30807214 961.13913439 409.07402128 942.6241985 C412.1866417 927.32129199 415.33578868 912.02669031 418.52848905 896.74028736 C420.00497489 889.6598291 421.46227965 882.57538219 422.92167753 875.491386 C424.07742648 869.89381273 425.24832197 864.300472 426.45683378 858.71404225 C428.43868773 849.49784491 430.29772535 840.25661721 432.17289823 831.01824147 C435.24805594 815.87421395 438.3377357 800.73469586 441.57402128 785.6241985 C444.96980984 769.76355572 448.20698444 753.87123437 451.4353494 737.975761 C451.83828718 735.99267649 452.24128159 734.0096035 452.64433378 732.02654225 C452.84303068 731.04858189 453.04172758 730.07062153 453.2464456 729.06302601 C454.69392128 721.95338968 456.17269607 714.85060459 457.65995878 707.7491985 C459.56731656 698.63082731 461.40055627 689.5012101 463.15766996 680.35277516 C463.88953543 676.54522936 464.62894445 672.739144 465.36699003 668.93279225 C465.65784728 667.43132825 465.94870023 665.92986342 466.23954862 664.42839772 C467.44670716 658.20030816 468.65882864 651.97328204 469.88652128 645.7491985 C470.08116972 644.74638844 470.27581815 643.74357838 470.47636503 642.71038014 C471.19989314 639.06184955 471.92756962 635.5586169 473.11699003 632.0304485 C474.41812622 628.07924309 474.97300353 624.10725385 475.57402128 619.9991985 C475.81297647 618.41316623 476.05257015 616.82723004 476.29277128 615.241386 C476.46492155 614.09619999 476.46492155 614.09619999 476.6405496 612.92787892 C477.1113821 609.88254998 477.61392334 606.84356161 478.1228494 603.80437428 C478.30142484 602.7367989 478.48000028 601.66922352 478.6639871 600.56929737 C478.79929838 599.76241474 478.93460966 598.95553211 479.07402128 598.1241985 C458.89173324 596.6553097 438.83250944 595.81651284 418.5888254 595.80752426 C415.0160526 595.80372545 411.44332228 595.78852335 407.87057585 595.77490956 C401.72314012 595.75295116 395.57572013 595.73775229 389.42825407 595.72754246 C380.54075331 595.71277154 371.65330765 595.68718761 362.76583982 595.65921117 C348.33619244 595.61407136 333.90653697 595.57732344 319.47685331 595.5460735 C305.48432592 595.51575182 291.49181814 595.48134069 277.49931425 595.44158131 C276.6325317 595.43911976 275.76574914 595.43665821 274.87270045 595.43412207 C270.52302769 595.42174484 266.17335515 595.40928882 261.82368273 595.39679366 C225.9071561 595.29371889 189.99060602 595.20435585 154.07402128 595.1241985 C154.0089488 595.88390949 153.94387632 596.64362049 153.87683195 597.42635304 C153.74591406 598.91768254 153.74591406 598.91768254 153.61235136 600.4391399 C153.52665388 601.4257259 153.4409564 602.4123119 153.35266203 603.42879444 C153.06362322 606.22478312 152.54324868 608.80027374 151.76152128 611.4991985 C150.32582527 616.90213177 149.22297643 622.31962182 148.19902128 627.8116985 C145.22848006 643.68052862 142.25520843 659.54887898 138.45073026 675.24211842 C137.22382631 680.34914496 136.21862286 685.47612587 135.28178495 690.64324147 C134.20232809 696.55296653 132.99437989 702.43220685 131.76152128 708.3116985 C131.5501956 709.3199065 131.33886991 710.32811451 131.12114042 711.36687428 C130.6738635 713.49892184 130.22634654 715.63091905 129.77861112 717.76287037 C128.53533424 723.69406791 127.30352451 729.62763231 126.07402128 735.5616985 C125.6967288 737.38266041 125.6967288 737.38266041 125.31181425 739.24040943 C123.43729857 748.31205012 121.60494263 757.39163343 119.8103494 766.47942311 C117.79735182 776.63646884 115.62878166 786.75680159 113.32011503 796.850761 C113.17189802 797.49926518 113.02368101 798.14776936 112.87097257 798.81592518 C112.26629651 801.45887054 111.66111271 804.10168246 111.05082792 806.74333912 C109.30303415 814.31804131 107.73550562 821.87534097 106.52616972 829.55681568 C105.95073518 832.82423985 105.02099404 835.94700826 104.07402128 839.1241985 C103.60368699 841.57646167 103.16877731 844.03567428 102.76152128 846.4991985 C101.49239488 853.96291059 100.06251315 861.38875851 98.57402128 868.8116985 C98.3725247 869.81958424 98.17102812 870.82746998 97.96342558 871.86589772 C96.55224705 878.87363693 95.07338332 885.86556714 93.5644998 892.85286671 C92.99342149 895.49744391 92.42336395 898.14224034 91.85331815 900.78704029 C90.18177991 908.54078793 88.50846165 916.2941513 86.83525175 924.04753834 C85.44233327 930.5024134 84.05026473 936.95747066 82.65904325 943.41271168 C82.15013369 945.7714292 81.63961844 948.1297891 81.1282205 950.48796803 C79.72590853 956.97683996 78.40601311 963.47134559 77.19902128 969.9991985 C75.18800069 980.70403091 72.97039254 991.36122193 70.72392362 1002.01872975 C70.05642929 1005.20825941 69.40151946 1008.40015987 68.74980253 1011.5929485 C68.5318704 1012.6553777 68.31393827 1013.71780689 68.08940214 1014.81243092 C67.677405 1016.82246804 67.26786222 1018.83301062 66.8613748 1020.8441692 C65.88260704 1025.59788788 64.79056321 1030.28756011 63.49833769 1034.96672779 C63.230827 1035.93821263 62.96331632 1036.90969746 62.68769926 1037.91062123 C62.48518553 1038.64110173 62.28267179 1039.37158222 62.07402128 1040.1241985 C30.93988048 1040.16999866 -0.19425127 1040.20530753 -31.32841786 1040.22632916 C-35.01889718 1040.22883004 -38.70937644 1040.23141873 -42.39985567 1040.23406178 C-43.13444576 1040.2345864 -43.86903584 1040.23511102 -44.62588622 1040.23565154 C-56.46079944 1040.2443122 -68.29569286 1040.26005775 -80.13059441 1040.27850409 C-92.3088672 1040.29732479 -104.48712975 1040.30834068 -116.66541648 1040.31237549 C-123.49118903 1040.31485383 -130.31692064 1040.32072394 -137.14267832 1040.33565861 C-143.58997298 1040.3494086 -150.03720541 1040.35338663 -156.48451334 1040.35041386 C-158.82912193 1040.35095634 -161.17373298 1040.35482862 -163.51832873 1040.36260945 C-175.97874522 1040.40187177 -188.35715988 1040.1041344 -200.79040438 1039.23500782 C-201.94509637 1039.15741675 -203.09978837 1039.07982567 -204.28947103 1038.99988335 C-205.89710586 1038.87571032 -205.89710586 1038.87571032 -207.53721815 1038.74902874 C-208.95591594 1038.64122328 -208.95591594 1038.64122328 -210.4032743 1038.53123993 C-212.94293534 1038.12146253 -214.71079436 1037.40406506 -216.92597872 1036.1241985 C-216.05245095 1027.14120396 -214.65282491 1018.42229137 -212.66816622 1009.62029225 C-210.8156448 1001.25228336 -209.02838161 992.87451704 -207.32050997 984.475761 C-207.10745714 983.42850346 -206.89440432 982.38124592 -206.67489535 981.30225331 C-206.02826311 978.11813569 -205.38320471 974.9337026 -204.73847872 971.7491985 C-204.07998586 968.5010535 -203.42101747 965.25300682 -202.7611075 962.00514942 C-202.35618321 960.0118591 -201.95207831 958.01840206 -201.54897982 956.02474171 C-200.54825878 951.09453641 -199.50299243 946.17822031 -198.40100008 941.26970631 C-197.62271556 937.75446332 -196.90747072 934.22680808 -196.19160372 930.69841725 C-195.86459244 929.09505301 -195.53752308 927.49170061 -195.21040255 925.88835865 C-194.95729815 924.64593403 -194.95729815 924.64593403 -194.69908053 923.37840992 C-191.87795162 909.53593468 -189.00209851 895.70852527 -186.01386935 881.90105397 C-184.11146545 873.07688716 -182.3169438 864.23355958 -180.5736838 855.3766399 C-179.76141845 851.25647353 -178.94394766 847.14185468 -178.01582247 843.0460735 C-177.02594088 838.65597304 -176.12358357 834.24889476 -175.22675997 829.83904225 C-175.0699425 829.06818791 -174.91312502 828.29733357 -174.7515555 827.50312001 C-174.41988222 825.87198583 -174.08828555 824.24083608 -173.75675875 822.60967213 C-171.05793033 809.34166399 -168.29570212 796.09262143 -165.36347872 782.8741985 C-162.73044989 770.99267457 -160.28308554 759.08377428 -157.92283541 747.1453777 C-155.73868686 736.10030906 -153.44732603 725.08409772 -151.05903536 714.08098561 C-149.39302228 706.38106154 -147.82251461 698.66638239 -146.30097872 690.9366985 C-144.96058618 684.13365357 -143.56409729 677.36198029 -141.92597872 670.6241985 C-139.82958131 661.9772153 -138.10706959 653.26439682 -136.38838106 644.53557545 C-130.87725344 616.58808977 -125.17829487 588.68181726 -119.39265352 560.78996998 C-118.40150709 556.01030077 -117.41189261 551.23031438 -116.42207247 546.45037037 C-113.11302723 530.47360646 -109.7993812 514.49782383 -106.46696383 498.52591664 C-105.16749471 492.29453312 -103.8845039 486.05995792 -102.60761935 479.82390553 C-100.64951024 470.27321433 -98.64199973 460.74349423 -96.42597872 451.2491985 C-94.1849212 441.63831765 -92.31623709 431.96567936 -90.47636324 422.27214772 C-89.04281877 414.72753693 -87.57288793 407.20828958 -85.73847872 399.7491985 C-84.20277322 393.50442095 -82.98961245 387.26083756 -81.9643088 380.9157024 C-81.2428922 376.53770965 -80.15918518 372.3821594 -78.92597872 368.1241985 C-78.4807097 365.90056844 -78.06623069 363.67064087 -77.67597872 361.4366985 C-76.3071836 353.83575165 -74.69167617 346.29558023 -73.05097872 338.7491985 C-70.74137525 328.10543985 -68.58631394 317.4420649 -66.5749045 306.73796803 C-66.38654024 305.73749439 -66.19817599 304.73702076 -66.00410372 303.70622975 C-65.84329317 302.84231617 -65.68248263 301.9784026 -65.51679903 301.08830982 C-64.87408694 297.86386043 -64.16174893 294.65897724 -63.44297701 291.45078236 C-62.64821214 287.8741997 -61.89777006 284.28869479 -61.14863497 280.7023235 C-60.98195818 279.90644825 -60.81528139 279.11057301 -60.64355379 278.29058033 C-60.09120857 275.65192263 -59.53978177 273.01307413 -58.98847872 270.3741985 C-58.79379 269.44305226 -58.59910128 268.51190602 -58.3985129 267.55254322 C-51.19988875 233.12175727 -44.06711732 198.67730007 -36.95921618 164.2276836 C-36.55149278 162.25168984 -36.14369885 160.27571065 -35.73588473 158.29973561 C-32.91872921 144.64949788 -30.10448912 130.99867269 -27.30049044 117.3457256 C-26.28450822 112.39905676 -25.26709814 107.45268186 -24.24936968 102.50637203 C-23.56195246 99.16488759 -22.87556305 95.8232001 -22.19068819 92.48119313 C-19.26516772 78.20613517 -16.24956719 63.95853367 -13.05900484 49.74025685 C-10.5779692 38.65113207 -8.31682756 27.52150143 -6.08979708 16.37908131 C-5.58394788 13.85336283 -5.07358321 11.32858969 -4.56269747 8.803886 C-4.41169085 8.04067036 -4.26068423 7.27745472 -4.10510164 6.49111134 C-2.82505777 0.18217643 -2.82505777 0.18217643 0 0 Z " fill="#0065B7" transform="translate(1543.9259787201881,277.8758015036583)"/>
<path d="M0 0 C5.97121185 0.01136079 11.94224459 0.00463987 17.91345024 -0.0068922 C47.16325739 -0.05457929 76.29833728 0.51900562 105.49829102 2.26074219 C106.7660437 2.33608185 108.03379639 2.41142151 109.33996582 2.48904419 C275.35126239 12.6251392 275.35126239 12.6251392 311.49829102 45.26074219 C312.68579102 47.51074219 312.68579102 47.51074219 312.49829102 50.26074219 C311.53402097 53.27573723 310.52474041 56.26662792 309.49829102 59.26074219 C307.77842069 64.35473612 306.07276414 69.45353616 304.36474609 74.55151367 C303.83165608 76.14074679 303.29748797 77.72961872 302.76220703 79.31811523 C299.75615966 88.24188468 296.89262706 97.16175758 294.3605957 106.23291016 C293.20492338 110.2908513 291.8704247 114.272064 290.49829102 118.26074219 C289.90943376 120.02192089 289.32230089 121.78367675 288.73657227 123.54589844 C284.5777181 136.02246094 280.41886393 148.49902344 276.26000977 160.97558594 C275.96215576 161.86963135 275.66430176 162.76367676 275.35742188 163.68481445 C274.80212461 165.34975946 274.24572307 167.01433675 273.68798828 168.6784668 C270.00967481 179.66428505 266.58640765 190.71731274 263.49047852 201.88183594 C261.35715772 209.14688512 258.81544219 216.29016806 256.36157227 223.45214844 C256.07726852 224.28286362 255.79296478 225.1135788 255.50004578 225.96946716 C254.60396334 228.58750727 253.7073861 231.20537761 252.81079102 233.82324219 C252.19812788 235.61294446 251.58549738 237.4026579 250.97290039 239.19238281 C249.48174063 243.54863166 247.9901375 247.90472847 246.49829102 252.26074219 C241.17702423 251.7362843 236.71394304 250.83438405 231.68969727 248.89746094 C231.07867661 248.66420609 230.46765594 248.43095123 229.83811951 248.19062805 C227.90901714 247.45149109 225.9850567 246.69986681 224.06079102 245.94824219 C222.77658022 245.45593705 221.49207655 244.96439517 220.20727539 244.47363281 C214.96942524 242.46185273 209.7611028 240.42324976 204.66235352 238.07714844 C200.3188522 236.10785977 195.90508574 234.76696968 191.31079102 233.51074219 C190.42351318 233.26396729 189.53623535 233.01719238 188.62207031 232.76293945 C186.65605159 232.21894803 184.68895321 231.6788476 182.72094727 231.14208984 C179.26823775 230.19782611 175.82104879 229.23463664 172.37329102 228.27246094 C138.24228575 218.84756319 103.22858162 213.21049705 68.01708984 209.625 C65.38817963 209.35286137 62.76608287 209.05750248 60.14160156 208.74804688 C44.38462559 206.9750982 28.65124477 206.86324245 12.81079102 206.88574219 C11.76165401 206.88588003 11.76165401 206.88588003 10.69132233 206.88602066 C-13.88194954 206.89018486 -38.13044189 207.91774174 -62.50170898 211.26074219 C-63.5772403 211.40573151 -63.5772403 211.40573151 -64.67449951 211.5536499 C-100.93737865 216.47504803 -141.97224273 225.77162421 -166.50170898 255.26074219 C-181.42568706 274.92661537 -183.20439605 298.27006896 -179.91967773 322.36621094 C-175.9946776 344.31902557 -158.65725113 359.30735787 -141.28686523 371.52124023 C-132.14230066 377.82837282 -122.66315086 383.08105699 -112.75170898 388.07324219 C-111.32292022 388.80357343 -109.89453368 389.5346921 -108.46655273 390.26660156 C-100.89705368 394.1314152 -93.27996509 397.8307011 -85.50170898 401.26074219 C-84.40040649 401.75550049 -84.40040649 401.75550049 -83.27685547 402.26025391 C-68.79009272 408.75786123 -54.20640683 415.15390104 -39.17749023 420.29199219 C-36.21691129 421.36385143 -33.52274807 422.68908272 -30.74780273 424.16308594 C-24.41194155 427.25939375 -17.6930705 429.61991279 -11.12939453 432.18945312 C-5.36083228 434.4679764 0.29769769 436.92806547 5.93579102 439.51074219 C11.82178622 442.19181493 17.72416291 444.7919831 23.7121582 447.23706055 C33.43568857 451.21643051 42.67341888 455.82415038 51.89526367 460.84960938 C54.68449387 462.36168502 57.4867215 463.84757842 60.29125977 465.33105469 C79.86060314 475.72944325 98.68460773 487.05901574 116.49829102 500.26074219 C117.59802246 501.07430176 117.59802246 501.07430176 118.7199707 501.90429688 C129.40302553 509.86719322 139.33356948 518.38880498 148.87866211 527.68359375 C150.22814539 528.99768209 151.59020412 530.29884082 152.95532227 531.59667969 C158.29065617 536.7531168 162.90587988 542.4421649 167.49829102 548.26074219 C167.90869629 548.77830078 168.31910156 549.29585937 168.74194336 549.82910156 C177.34911384 560.71317852 185.11382805 571.90819429 191.49829102 584.26074219 C192.01391602 585.24042969 192.52954102 586.22011719 193.06079102 587.22949219 C196.00185055 592.93514768 198.46922099 598.61479199 200.56860352 604.67871094 C201.44163561 607.10339252 202.42515375 609.41897367 203.49829102 611.76074219 C218.28286108 644.20327634 219.7266739 680.23870703 219.68579102 715.32324219 C219.68538315 716.65728592 219.68538315 716.65728592 219.68496704 718.01828003 C219.66423646 732.85690147 219.07933121 747.49694429 217.49829102 762.26074219 C217.40177246 763.24671387 217.30525391 764.23268555 217.20581055 765.24853516 C212.53364785 812.51486415 196.9083737 860.23289362 169.49829102 899.26074219 C168.9879834 899.99728027 168.47767578 900.73381836 167.9519043 901.49267578 C160.69468518 911.93609873 152.98295817 921.79174755 144.49829102 931.26074219 C143.24725586 932.67806641 143.24725586 932.67806641 141.97094727 934.12402344 C130.09392594 947.3552814 117.64549698 960.44719301 103.49829102 971.26074219 C102.41412244 972.13178649 101.3322287 973.00566713 100.25219727 973.88183594 C91.9988443 980.5427225 83.44615841 986.57118188 74.49829102 992.26074219 C72.84893555 993.31648438 72.84893555 993.31648438 71.16625977 994.39355469 C51.9776507 1006.4024305 31.29229281 1016.3718697 10.49829102 1025.26074219 C9.52214844 1025.67807617 8.54600586 1026.09541016 7.5402832 1026.52539062 C-7.26785852 1032.78909707 -22.25761941 1037.93036084 -37.68725586 1042.43701172 C-40.30587682 1043.20342628 -42.917931 1043.98875775 -45.52905273 1044.78027344 C-87.22588132 1057.29388448 -130.13376388 1065.42712468 -173.3956604 1070.03546143 C-174.85765294 1070.19184851 -176.31936753 1070.35084743 -177.78085327 1070.51190186 C-190.86230095 1071.94868066 -203.91573316 1072.85480611 -217.06420898 1073.38574219 C-218.07774445 1073.42776764 -219.09127991 1073.46979309 -220.13552856 1073.51309204 C-283.936432 1076.07599926 -350.30662373 1077.16654374 -413.50170898 1067.26074219 C-414.17886963 1067.1550592 -414.85603027 1067.04937622 -415.55371094 1066.94049072 C-421.1232773 1066.06885572 -426.68845412 1065.17173991 -432.25170898 1064.26074219 C-433.02297119 1064.13508881 -433.7942334 1064.00943542 -434.58886719 1063.87997437 C-442.84581805 1062.52542188 -450.9550055 1061.00200657 -459.0559082 1058.87695312 C-461.92146306 1058.15498662 -464.75398975 1057.7177256 -467.68920898 1057.38574219 C-508.09774033 1051.89923901 -549.46156655 1041.28306718 -588.19702148 1028.64746094 C-595.24721758 1026.35102777 -602.37988443 1024.32160307 -609.50170898 1022.26074219 C-608.96853858 1015.41954271 -607.50992149 1009.49424208 -605.31420898 1003.01074219 C-602.83869405 995.48780679 -600.50627713 987.95145192 -598.37670898 980.32324219 C-596.33352843 973.03367515 -594.08527166 965.86861433 -591.64233398 958.70214844 C-590.17319745 954.26958239 -588.91593019 949.79102013 -587.65405273 945.29589844 C-583.82234721 931.76182907 -579.57822167 918.36093441 -575.05932617 905.04248047 C-573.00670006 898.93182866 -571.17390446 892.78108755 -569.43920898 886.57324219 C-567.46805154 879.51918531 -565.33005135 872.56366473 -562.96240234 865.63330078 C-560.71060132 858.99846546 -558.64559195 852.31064835 -556.58947754 845.61288452 C-553.14625071 834.39665358 -549.56389513 823.26847014 -545.50170898 812.26074219 C-540.02782803 812.79962166 -535.72531724 814.21090217 -530.75170898 816.51074219 C-530.045625 816.82793213 -529.33954102 817.14512207 -528.61206055 817.47192383 C-525.63821503 818.81137477 -522.67804605 820.17876526 -519.72045898 821.55371094 C-498.89234408 831.2097832 -477.3523481 838.34945415 -455.26513672 844.48046875 C-453.29951418 845.03547623 -451.33849349 845.60689503 -449.38085938 846.18945312 C-439.8207653 849.01157032 -430.19166042 851.21870599 -420.43920898 853.26074219 C-419.61388672 853.43471527 -418.78856445 853.60868835 -417.93823242 853.78793335 C-403.56277821 856.80189058 -389.19990062 859.09432361 -374.61499023 860.86816406 C-371.77801471 861.22590062 -368.95347337 861.62745739 -366.12670898 862.05761719 C-317.1698391 869.47603166 -266.52525382 870.23185839 -217.50170898 863.26074219 C-216.50268555 863.12764648 -215.50366211 862.99455078 -214.47436523 862.85742188 C-209.11702477 862.14350316 -203.80933191 861.27848791 -198.50170898 860.26074219 C-197.59420898 860.08961914 -196.68670898 859.91849609 -195.75170898 859.7421875 C-177.28094243 856.21208376 -158.62799865 852.23676325 -141.50170898 844.26074219 C-140.13087296 843.6455842 -138.75975762 843.03104844 -137.38842773 842.41699219 C-111.51969835 830.69437475 -86.58857024 813.12397036 -75.61108398 786.06542969 C-74.80828029 783.81928745 -74.15840426 781.5538511 -73.50170898 779.26074219 C-73.14979492 778.26300781 -72.79788086 777.26527344 -72.43530273 776.23730469 C-69.49484032 766.7909411 -69.09406095 757.5358616 -69.06420898 747.69824219 C-69.05429932 746.40901855 -69.04438965 745.11979492 -69.03417969 743.79150391 C-69.24666571 719.70262121 -77.58280626 700.67124441 -94.18920898 683.26074219 C-105.28479144 672.51122078 -118.70926073 663.75814197 -132.28295898 656.47949219 C-133.84575686 655.62105392 -135.38602975 654.72096198 -136.90795898 653.79199219 C-145.64337107 648.47041931 -154.82300464 644.19354109 -164.06811523 639.83886719 C-168.07087237 637.95217398 -172.01570718 635.9934146 -175.93920898 633.94824219 C-181.05705169 631.34822866 -186.33399855 629.39095298 -191.72216797 627.43920898 C-195.44745855 626.07721239 -198.98529384 624.61366801 -202.50170898 622.76074219 C-207.04970822 620.38559267 -211.7470861 618.60358519 -216.55541992 616.8449707 C-223.16913316 614.41542786 -229.71180349 611.81934666 -236.25170898 609.19824219 C-237.79483765 608.58106323 -237.79483765 608.58106323 -239.36914062 607.95141602 C-259.36333471 599.92720944 -259.36333471 599.92720944 -264.43920898 597.26074219 C-267.71067225 595.56791109 -271.04532908 594.28302927 -274.50170898 593.01074219 C-280.48467359 590.76800109 -286.11338519 588.06749087 -291.76928711 585.11523438 C-295.61254454 583.12673219 -299.44547268 581.49733865 -303.51269531 580.02490234 C-306.84904894 578.74310698 -310.00808749 577.13347158 -313.18920898 575.51074219 C-314.22295654 574.98794678 -314.22295654 574.98794678 -315.27758789 574.45458984 C-324.3808155 569.82849699 -333.35860549 565.03320008 -342.07202148 559.70214844 C-344.50925576 558.25626508 -346.98909393 556.94550961 -349.50170898 555.63574219 C-389.25517615 534.15195355 -423.10572104 500.98305814 -444.50170898 461.26074219 C-445.07276367 460.2359375 -445.64381836 459.21113281 -446.23217773 458.15527344 C-459.09693183 433.98602147 -465.65949309 407.29989861 -468.50170898 380.26074219 C-468.58503983 379.5610582 -468.66837067 378.86137421 -468.75422668 378.14048767 C-469.51757895 371.34043018 -469.66280569 364.61126204 -469.66967773 357.77246094 C-469.67300613 356.59343704 -469.67633453 355.41441315 -469.67976379 354.19966125 C-469.68480452 351.71115506 -469.68717301 349.22264216 -469.68701172 346.73413086 C-469.68918043 342.99743956 -469.70731808 339.26105258 -469.72631836 335.52441406 C-469.77302088 316.21300363 -468.49878472 297.42577267 -465.25170898 278.38574219 C-465.03627441 277.11762695 -464.82083984 275.84951172 -464.59887695 274.54296875 C-460.64334729 252.05384586 -454.04009165 231.3020955 -444.16967773 210.74902344 C-442.64691436 207.56441525 -441.19483994 204.35694279 -439.75170898 201.13574219 C-433.33563895 187.2599214 -426.28593612 173.64069809 -417.67602539 160.99267578 C-416.40659752 159.12046761 -415.16321363 157.23226611 -413.91967773 155.34277344 C-404.86743716 141.71690715 -394.45194592 130.0553791 -382.93920898 118.44824219 C-382.0769873 117.57659424 -381.21476562 116.70494629 -380.32641602 115.80688477 C-374.36050609 109.87091171 -368.10749892 104.47119645 -361.50170898 99.26074219 C-360.76944092 98.67977783 -360.03717285 98.09881348 -359.28271484 97.50024414 C-345.03070632 86.28462918 -330.15858738 76.39217835 -314.50170898 67.26074219 C-313.91534668 66.9180127 -313.32898437 66.5752832 -312.72485352 66.22216797 C-301.669748 59.78029477 -290.52383908 53.39345257 -278.79052734 48.265625 C-276.61294245 47.30957813 -274.45366351 46.32042954 -272.29467773 45.32324219 C-260.87203642 40.15612584 -249.19794293 35.96597631 -237.31420898 32.01074219 C-236.19252823 31.635625 -236.19252823 31.635625 -235.04818726 31.25292969 C-219.23068962 25.98238093 -203.24842262 21.51280085 -187.00170898 17.76074219 C-185.7190918 17.46449951 -184.43647461 17.16825684 -183.11499023 16.86303711 C-160.7244653 11.73343004 -138.31465971 7.94877979 -115.50170898 5.26074219 C-114.30094727 5.11894531 -113.10018555 4.97714844 -111.86303711 4.83105469 C-74.64310039 0.54500005 -37.42872121 -0.07184703 0 0 Z " fill="#0065B7" transform="translate(2916.501708984375,260.7392578125)"/>
</svg>
